REM DIRINDEX 1\2,1\3,1\4,1\5
REM DIRNAME folder01,folder02,folder03,folder04,folder05
TITLE ""
FILE "1Q_t_0463-0472.mp3" MP3
  TRACK 01 AUDIO
    TITLE "3:cjc004_2290"
    INDEX 01 00:00:00
  TRACK 02 AUDIO
    TITLE "0:"
    INDEX 01 00:01:01
  TRACK 03 AUDIO
    TITLE "4:cjc004_2291"
    INDEX 01 00:01:24
  TRACK 04 AUDIO
    TITLE "0:"
    INDEX 01 00:02:49
  TRACK 05 AUDIO
    TITLE "5:cjc004_2292"
    INDEX 01 00:02:69
  TRACK 06 AUDIO
    TITLE "0:"
    INDEX 01 00:06:73
  TRACK 07 AUDIO
    TITLE "3:cjc004_2293"
    INDEX 01 00:07:52
  TRACK 08 AUDIO
    TITLE "0:"
    INDEX 01 00:08:52
  TRACK 09 AUDIO
    TITLE "4:cjc004_2294"
    INDEX 01 00:09:08
  TRACK 10 AUDIO
    TITLE "0:"
    INDEX 01 00:10:08
  TRACK 11 AUDIO
    TITLE "5:cjc004_2295"
    INDEX 01 00:10:37
  TRACK 12 AUDIO
    TITLE "0:"
    INDEX 01 00:15:07
  TRACK 13 AUDIO
    TITLE "3:cjc004_2296"
    INDEX 01 00:15:60
  TRACK 14 AUDIO
    TITLE "0:"
    INDEX 01 00:16:73
  TRACK 15 AUDIO
    TITLE "4:cjc004_2297"
    INDEX 01 00:17:33
  TRACK 16 AUDIO
    TITLE "0:"
    INDEX 01 00:19:16
  TRACK 17 AUDIO
    TITLE "5:cjc004_2298"
    INDEX 01 00:19:42
  TRACK 18 AUDIO
    TITLE "0:"
    INDEX 01 00:24:14
  TRACK 19 AUDIO
    TITLE "3:cjc004_2299"
    INDEX 01 00:24:65
  TRACK 20 AUDIO
    TITLE "0:"
    INDEX 01 00:25:64
  TRACK 21 AUDIO
    TITLE "4:cjc004_2300"
    INDEX 01 00:26:22
  TRACK 22 AUDIO
    TITLE "0:"
    INDEX 01 00:27:53
  TRACK 23 AUDIO
    TITLE "5:cjc004_2301"
    INDEX 01 00:28:06
  TRACK 24 AUDIO
    TITLE "0:"
    INDEX 01 00:32:07
  TRACK 25 AUDIO
    TITLE "3:cjc004_2302"
    INDEX 01 00:32:58
  TRACK 26 AUDIO
    TITLE "0:"
    INDEX 01 00:33:58
  TRACK 27 AUDIO
    TITLE "4:cjc004_2303"
    INDEX 01 00:34:06
  TRACK 28 AUDIO
    TITLE "0:"
    INDEX 01 00:35:31
  TRACK 29 AUDIO
    TITLE "5:cjc004_2304"
    INDEX 01 00:35:51
  TRACK 30 AUDIO
    TITLE "0:"
    INDEX 01 00:40:44
  TRACK 31 AUDIO
    TITLE "3:cjc004_2305"
    INDEX 01 00:41:20
  TRACK 32 AUDIO
    TITLE "0:"
    INDEX 01 00:42:19
  TRACK 33 AUDIO
    TITLE "4:cjc004_2306"
    INDEX 01 00:42:53
  TRACK 34 AUDIO
    TITLE "0:"
    INDEX 01 00:44:28
  TRACK 35 AUDIO
    TITLE "5:cjc004_2307"
    INDEX 01 00:44:56
  TRACK 36 AUDIO
    TITLE "0:"
    INDEX 01 00:49:20
  TRACK 37 AUDIO
    TITLE "3:cjc004_2308"
    INDEX 01 00:49:47
  TRACK 38 AUDIO
    TITLE "0:"
    INDEX 01 00:50:52
  TRACK 39 AUDIO
    TITLE "4:cjc004_2309"
    INDEX 01 00:51:05
  TRACK 40 AUDIO
    TITLE "0:"
    INDEX 01 00:52:47
  TRACK 41 AUDIO
    TITLE "5:cjc004_2310"
    INDEX 01 00:53:00
  TRACK 42 AUDIO
    TITLE "0:"
    INDEX 01 00:56:67
  TRACK 43 AUDIO
    TITLE "3:cjc004_2311"
    INDEX 01 00:57:41
  TRACK 44 AUDIO
    TITLE "0:"
    INDEX 01 00:58:71
  TRACK 45 AUDIO
    TITLE "4:cjc004_2312"
    INDEX 01 00:59:24
  TRACK 46 AUDIO
    TITLE "0:"
    INDEX 01 01:00:37
  TRACK 47 AUDIO
    TITLE "5:cjc004_2313"
    INDEX 01 01:00:62
  TRACK 48 AUDIO
    TITLE "0:"
    INDEX 01 01:06:61
  TRACK 49 AUDIO
    TITLE "3:cjc004_2314"
    INDEX 01 01:07:41
  TRACK 50 AUDIO
    TITLE "0:"
    INDEX 01 01:08:64
  TRACK 51 AUDIO
    TITLE "4:cjc004_2315"
    INDEX 01 01:09:16
  TRACK 52 AUDIO
    TITLE "0:"
    INDEX 01 01:10:30
  TRACK 53 AUDIO
    TITLE "5:cjc004_2316"
    INDEX 01 01:10:55
  TRACK 54 AUDIO
    TITLE "0:"
    INDEX 01 01:15:19
  TRACK 55 AUDIO
    TITLE "3:cjc004_2317"
    INDEX 01 01:15:74
  TRACK 56 AUDIO
    TITLE "0:"
    INDEX 01 01:17:32
  TRACK 57 AUDIO
    TITLE "4:cjc004_2318"
    INDEX 01 01:17:59
  TRACK 58 AUDIO
    TITLE "0:"
    INDEX 01 01:19:19
  TRACK 59 AUDIO
    TITLE "5:cjc004_2319"
    INDEX 01 01:19:40
  TRACK 60 AUDIO
    TITLE "0:"
    INDEX 01 01:23:52
